<svg xmlns="http://www.w3.org/2000/svg" width="400" height="200" viewBox="0 0 400 200">
  <rect width="400" height="200" rx="12" fill="#1a1b26"/>
  <rect x="8" y="8" width="384" height="184" rx="10" fill="#24283b"/>
  <text x="30" y="38" font-family="Segoe UI, Ubuntu, sans-serif" font-size="16" font-weight="700" fill="#7aa2f7">Top Languages by Commit</text>
  <rect x="30" y="65" width="12" height="12" rx="3" fill="#3178c6"/><text x="50" y="75" font-family="Segoe UI, Ubuntu, sans-serif" font-size="12" fill="#a9b1d6">TypeScript</text><rect x="30" y="87" width="12" height="12" rx="3" fill="#f1e05a"/><text x="50" y="97" font-family="Segoe UI, Ubuntu, sans-serif" font-size="12" fill="#a9b1d6">JavaScript</text><rect x="30" y="109" width="12" height="12" rx="3" fill="#f34b7d"/><text x="50" y="119" font-family="Segoe UI, Ubuntu, sans-serif" font-size="12" fill="#a9b1d6">C++</text><rect x="30" y="131" width="12" height="12" rx="3" fill="#663399"/><text x="50" y="141" font-family="Segoe UI, Ubuntu, sans-serif" font-size="12" fill="#a9b1d6">CSS</text><rect x="30" y="153" width="12" height="12" rx="3" fill="#e34c26"/><text x="50" y="163" font-family="Segoe UI, Ubuntu, sans-serif" font-size="12" fill="#a9b1d6">HTML</text>
  <path d="M 290.00 45.00 A 65 65 0 1 1 267.41 170.95 L 275.40 149.38 A 42 42 0 1 0 290.00 68.00 Z" fill="#3178c6"/><path d="M 267.41 170.95 A 65 65 0 0 1 251.07 57.94 L 264.85 76.36 A 42 42 0 0 0 275.40 149.38 Z" fill="#f1e05a"/><path d="M 251.07 57.94 A 65 65 0 0 1 264.87 50.05 L 273.76 71.27 A 42 42 0 0 0 264.85 76.36 Z" fill="#f34b7d"/><path d="M 264.87 50.05 A 65 65 0 0 1 277.73 46.17 L 282.07 68.76 A 42 42 0 0 0 273.76 71.27 Z" fill="#663399"/><path d="M 277.73 46.17 A 65 65 0 0 1 290.00 45.00 L 290.00 68.00 A 42 42 0 0 0 282.07 68.76 Z" fill="#e34c26"/>
</svg>
