<svg xmlns="http://www.w3.org/2000/svg" width="400" height="200" viewBox="0 0 400 200">
  <rect width="400" height="200" rx="12" fill="#1a1b26"/>
  <rect x="8" y="8" width="384" height="184" rx="10" fill="#24283b"/>
  <text x="30" y="38" font-family="Segoe UI, Ubuntu, sans-serif" font-size="16" font-weight="700" fill="#7aa2f7">Top Languages by Repo</text>
  <rect x="30" y="65" width="12" height="12" rx="3" fill="#3178c6"/><text x="50" y="75" font-family="Segoe UI, Ubuntu, sans-serif" font-size="12" fill="#a9b1d6">TypeScript</text><rect x="30" y="87" width="12" height="12" rx="3" fill="#f1e05a"/><text x="50" y="97" font-family="Segoe UI, Ubuntu, sans-serif" font-size="12" fill="#a9b1d6">JavaScript</text><rect x="30" y="109" width="12" height="12" rx="3" fill="#f34b7d"/><text x="50" y="119" font-family="Segoe UI, Ubuntu, sans-serif" font-size="12" fill="#a9b1d6">C++</text><rect x="30" y="131" width="12" height="12" rx="3" fill="#663399"/><text x="50" y="141" font-family="Segoe UI, Ubuntu, sans-serif" font-size="12" fill="#a9b1d6">CSS</text><rect x="30" y="153" width="12" height="12" rx="3" fill="#e34c26"/><text x="50" y="163" font-family="Segoe UI, Ubuntu, sans-serif" font-size="12" fill="#a9b1d6">HTML</text>
  <path d="M 290.00 45.00 A 65 65 0 1 1 266.51 170.61 L 274.82 149.16 A 42 42 0 1 0 290.00 68.00 Z" fill="#3178c6"/><path d="M 266.51 170.61 A 65 65 0 0 1 251.26 57.81 L 264.97 76.27 A 42 42 0 0 0 274.82 149.16 Z" fill="#f1e05a"/><path d="M 251.26 57.81 A 65 65 0 0 1 265.01 50.00 L 273.85 71.23 A 42 42 0 0 0 264.97 76.27 Z" fill="#f34b7d"/><path d="M 265.01 50.00 A 65 65 0 0 1 277.79 46.16 L 282.11 68.75 A 42 42 0 0 0 273.85 71.23 Z" fill="#663399"/><path d="M 277.79 46.16 A 65 65 0 0 1 290.00 45.00 L 290.00 68.00 A 42 42 0 0 0 282.11 68.75 Z" fill="#e34c26"/>
</svg>
